<?xml version="1.0" encoding="UTF-8"?>
<svg version="1.1" xmlns="http://www.w3.org/2000/svg" width="1024" height="1024">
<path d="M0 0 C2.73400004 -0.002639 5.46799221 -0.00826382 8.20198786 -0.01373065 C14.12976744 -0.02399057 20.05751439 -0.02688145 25.98530197 -0.02481842 C34.80090688 -0.02175792 43.61647591 -0.03011562 52.43207382 -0.04056767 C69.09746094 -0.05987554 85.76283572 -0.06553472 102.42823271 -0.06668179 C115.30380751 -0.0676022 128.17937749 -0.07172576 141.05495071 -0.07808304 C144.76625176 -0.07987824 148.47755281 -0.08165787 152.18885386 -0.08343279 C153.11160075 -0.08387489 154.03434764 -0.08431699 154.98505655 -0.08477248 C180.92924305 -0.09707542 206.87342788 -0.10497418 232.81761742 -0.10408592 C233.79511593 -0.10405476 234.77261444 -0.10402361 235.77973412 -0.10399151 C240.73366138 -0.1038253 245.68758864 -0.10362722 250.6415159 -0.10342209 C251.6253128 -0.1033822 252.60910971 -0.10334231 253.62271865 -0.10330121 C255.61219571 -0.10322034 257.60167278 -0.10313674 259.59114985 -0.10305043 C290.52844692 -0.10182554 321.46570011 -0.11682888 352.40298462 -0.14419556 C387.19411554 -0.17495891 421.98521764 -0.19212546 456.77636302 -0.19026911 C460.49080761 -0.19011986 464.20525221 -0.19002244 467.91969681 -0.18996048 C469.29149007 -0.18992552 469.29149007 -0.18992552 470.69099632 -0.18988985 C485.3682461 -0.18982846 500.04545761 -0.20256613 514.72269603 -0.21982501 C529.49125025 -0.23683126 544.25974885 -0.23871645 559.02830748 -0.22560637 C567.78591009 -0.2182501 576.54334301 -0.2217749 585.30092741 -0.24149105 C591.16987765 -0.25357988 597.03870633 -0.25080234 602.90765122 -0.23655005 C606.23912509 -0.22886096 609.57001068 -0.22929279 612.90150099 -0.24346475 C669.26549491 -0.4671585 719.76924989 19.84001892 760.15640259 59.26742554 C772.42844891 71.50006259 782.52075649 85.25415658 791.15640259 100.26742554 C791.50912231 100.87183472 791.86184204 101.4762439 792.22525024 102.09896851 C811.88962254 136.11043906 817.64194919 173.04055363 817.54408264 211.76298523 C817.54660703 214.48240629 817.55362534 217.2018119 817.56040245 219.92122525 C817.57267741 225.79546941 817.57402194 231.66963359 817.56785202 237.54388618 C817.5587013 246.27976136 817.56684044 255.01556352 817.57814326 263.75143313 C817.59774407 279.36124531 817.60017028 294.97102417 817.59494806 310.58084573 C817.59037982 324.24363644 817.59100383 337.90641403 817.59678841 351.56920433 C817.59754529 353.40633989 817.59830127 355.24347545 817.59905635 357.08061102 C817.60020162 359.84946233 817.60135151 362.61831363 817.60251559 365.38716494 C817.61321044 391.1073786 817.61795627 416.82758792 817.61004543 442.54780293 C817.60959967 444.00013607 817.60959967 444.00013607 817.60914491 445.48180929 C817.60669631 453.34299581 817.60408455 461.20418229 817.60146077 469.06536876 C817.5913601 499.72185315 817.59971449 530.37828276 817.62295532 561.03475952 C817.64906362 595.52892829 817.6618664 630.02306408 817.65476757 664.51724309 C817.65405158 668.19956187 817.65337718 671.88188065 817.65272713 675.56419945 C817.65255732 676.47078703 817.65238751 677.37737461 817.65221255 678.31143455 C817.64991573 691.95846782 817.65785694 705.60547034 817.6710186 719.25249672 C817.685971 734.78338018 817.68671805 750.31419187 817.66894769 765.84507386 C817.65942821 774.52050334 817.66072981 783.19576513 817.67818238 791.8711832 C817.68875186 797.68511687 817.68446055 803.49892416 817.66870234 809.31284558 C817.66015583 812.61276916 817.65970357 815.91210367 817.67297166 819.21204952 C817.88436667 875.86359058 797.79480503 926.66414093 758.15640259 967.26742554 C745.93892953 979.52425902 732.17979891 989.68607442 717.15640259 998.26742554 C716.4925354 998.65253296 715.82866821 999.03764038 715.14468384 999.43441772 C695.23288262 1010.86828901 673.71271691 1018.1589933 651.15640259 1022.26742554 C650.28498416 1022.44004335 649.41356574 1022.61266116 648.51574069 1022.79050982 C635.90814607 1024.96518969 623.18430579 1024.55138623 610.43305969 1024.53485107 C607.6999227 1024.53748912 604.9667936 1024.54311399 602.233661 1024.54858172 C596.30466868 1024.55884731 590.375709 1024.56173152 584.44670868 1024.55966949 C575.62928442 1024.55661047 566.81189608 1024.5649635 557.99447882 1024.57541875 C541.32568596 1024.59473226 524.65690543 1024.60038602 507.9881027 1024.60153286 C495.10964357 1024.60245312 482.23118926 1024.60657588 469.3527317 1024.61293411 C465.64116775 1024.61472931 461.92960378 1024.61650893 458.21803981 1024.61828387 C457.29523567 1024.61872596 456.37243152 1024.61916806 455.42166361 1024.61962355 C429.47354925 1024.6319276 403.52543655 1024.63982514 377.57731915 1024.638937 C376.59955462 1024.63890584 375.62179009 1024.63887468 374.61439634 1024.63884258 C369.65907825 1024.63867637 364.70376016 1024.63847829 359.74844208 1024.63827316 C358.76436283 1024.63823327 357.78028358 1024.63819338 356.76638375 1024.63815228 C354.77633502 1024.63807141 352.78628628 1024.63798781 350.79623754 1024.6379015 C319.85239029 1024.63667671 288.9085869 1024.6516778 257.9647522 1024.67904663 C223.16886751 1024.70981007 188.37301164 1024.7269765 153.5771125 1024.72512019 C149.86209063 1024.72497094 146.14706876 1024.72487352 142.43204689 1024.72481155 C141.51737155 1024.72478825 140.60269621 1024.72476494 139.66030344 1024.72474092 C124.9802092 1024.72467953 110.30015323 1024.73741769 95.62007035 1024.75467608 C80.84803346 1024.77168253 66.07605218 1024.77356739 51.30401089 1024.76045744 C42.54419164 1024.75310113 33.78454202 1024.75662608 25.02474097 1024.77634212 C19.15427773 1024.78843094 13.28393602 1024.78565343 7.41347812 1024.77140112 C4.08112251 1024.76371198 0.74935502 1024.76414397 -2.58301703 1024.77831583 C-58.17948783 1024.99890318 -107.63682601 1005.62367608 -147.84359741 967.26742554 C-148.69566772 966.46820679 -149.54773804 965.66898804 -150.42562866 964.84555054 C-161.62210289 954.0546179 -170.61436374 941.40710729 -178.84359741 928.26742554 C-179.22225952 927.66801147 -179.60092163 927.06859741 -179.99105835 926.45101929 C-189.74850728 910.77816984 -196.55066499 893.25794086 -201.28109741 875.45492554 C-201.50370239 874.62275513 -201.72630737 873.79058472 -201.95565796 872.93319702 C-206.57232769 854.29052646 -207.27904072 835.90479501 -207.23127747 816.77786255 C-207.23379985 814.03470615 -207.24081768 811.29156511 -207.24759728 808.54841638 C-207.25988714 802.61614236 -207.26121016 796.68394752 -207.25504684 790.75166512 C-207.2459059 781.92952184 -207.25402759 773.10745099 -207.26533808 764.28531324 C-207.28495075 748.52217098 -207.28736278 732.7590617 -207.28214288 716.99591016 C-207.27757646 703.19839252 -207.27819639 689.40088789 -207.28398323 675.60337067 C-207.28474011 673.74884938 -207.28549609 671.89432809 -207.28625118 670.0398068 C-207.28739644 667.2448181 -207.28854632 664.4498294 -207.28971042 661.65484071 C-207.30040722 635.68742287 -207.30514913 609.72000934 -207.29724026 583.75259018 C-207.29694308 582.77481367 -207.29664591 581.79703716 -207.29633973 580.78963106 C-207.29389108 572.85064179 -207.29127935 564.91165257 -207.2886556 556.97266336 C-207.27855556 526.01441895 -207.2869073 495.05622879 -207.31015015 464.09799194 C-207.33625511 429.27167309 -207.34906203 394.44538689 -207.3419624 359.61905789 C-207.3412464 355.90161976 -207.340572 352.18418162 -207.33992195 348.46674347 C-207.33975214 347.55149656 -207.33958233 346.63624965 -207.33940738 345.69326798 C-207.33710991 331.91180969 -207.34505494 318.13038183 -207.35821342 304.34893036 C-207.37316185 288.66535722 -207.37391821 272.98185516 -207.35614251 257.29828349 C-207.34661866 248.53600496 -207.34793372 239.77389246 -207.3653772 231.01162522 C-207.37593906 225.14100592 -207.37166581 219.27051186 -207.35589717 213.39990471 C-207.34734263 210.06675089 -207.34691318 206.73418102 -207.36016648 203.40100488 C-207.56778181 147.1441485 -186.87401064 96.4167714 -147.28109741 56.45492554 C-141.76524049 50.99827426 -136.02853989 45.96221348 -129.84359741 41.26742554 C-129.28349976 40.83140015 -128.7234021 40.39537476 -128.14633179 39.94613647 C-90.51182464 10.86125152 -46.64951227 -0.06056457 0 0 Z " fill="#343434" transform="translate(206.84359741210938,-0.267425537109375)"/>
<path d="M0 0 C1.40423182 0.00051035 1.40423182 0.00051035 2.83683196 0.00103101 C3.82595598 -0.0025196 4.81508001 -0.00607022 5.83417749 -0.00972843 C9.19305859 -0.02050902 12.55190967 -0.0240525 15.91080561 -0.02766219 C18.32564927 -0.0338193 20.74049189 -0.04039487 23.15533337 -0.04735598 C29.12496578 -0.0633399 35.09459078 -0.07451946 41.06423627 -0.08363459 C46.02947164 -0.09137043 50.99469774 -0.10144125 55.95992556 -0.11302939 C57.03288597 -0.1155315 57.03288597 -0.1155315 58.12752234 -0.11808417 C59.58627278 -0.12149296 61.04502321 -0.12490448 62.50377363 -0.12831869 C82.24770504 -0.17404715 101.99165615 -0.20448455 121.73561946 -0.23248091 C122.54409117 -0.2336359 123.35256289 -0.23479089 124.18553374 -0.23598088 C156.18819906 -0.28168636 188.19087249 -0.32132586 220.19355964 -0.34800582 C228.12660644 -0.35462936 236.05965303 -0.3615028 243.99269953 -0.36846724 C245.30758824 -0.36961202 245.30758824 -0.36961202 246.64904036 -0.37077993 C275.04965913 -0.39570526 303.45013113 -0.44916217 331.85067361 -0.51848551 C361.0453603 -0.58961736 390.23996808 -0.63467261 419.4347424 -0.64598659 C423.56094367 -0.64759145 427.68714476 -0.64947904 431.81334582 -0.65153113 C432.62541303 -0.65192401 433.43748025 -0.6523169 434.27415556 -0.65272169 C447.33054215 -0.65977305 460.38672234 -0.69395932 473.44302996 -0.73819214 C486.57766984 -0.78206641 499.71208526 -0.79644882 512.8467916 -0.78109888 C520.64442365 -0.77285756 528.4412709 -0.78672339 536.23877507 -0.83281821 C542.07168701 -0.86481521 547.90404453 -0.85466238 553.73700174 -0.8285531 C556.08920992 -0.82449162 558.44148962 -0.83384796 560.79357401 -0.8583189 C579.09200025 -1.03720424 592.84786818 2.26405378 606.57546321 15.14642534 C611.04162409 19.56596659 611.04162409 19.56596659 612.57546321 22.14642534 C612.57546321 23.46642534 612.57546321 24.78642534 612.57546321 26.14642534 C613.23546321 26.14642534 613.89546321 26.14642534 614.57546321 26.14642534 C619.06125557 33.80380806 619.31056144 41.10884428 619.26296321 49.83392534 C619.26159358 50.50217332 619.26022395 51.17042131 619.25881281 51.85891923 C619.18815119 62.55403817 618.32559764 70.52408381 611.57546321 79.14642534 C610.89226008 80.02943315 610.20905696 80.91244096 609.50515071 81.82220659 C604.63307267 87.62979771 599.46895511 91.97760101 592.57546321 95.20892534 C591.05952571 95.93789018 591.05952571 95.93789018 589.51296321 96.68158159 C576.2689793 101.93707205 563.08325643 101.55732802 549.06838313 101.48700151 C546.66384639 101.48608132 544.25930885 101.486485 541.85477248 101.48809728 C535.44511442 101.48877152 529.03562612 101.47144822 522.62600794 101.45026597 C516.60024343 101.43311673 510.57451914 101.43237312 504.54872981 101.43023881 C486.953452 101.41452862 469.35820543 101.3726449 451.76296321 101.33392534 C412.43108821 101.27205034 373.09921321 101.21017534 332.57546321 101.14642534 C332.57546321 234.13642534 332.57546321 367.12642534 332.57546321 504.14642534 C311.12546321 504.14642534 289.67546321 504.14642534 267.57546321 504.14642534 C267.90546321 537.47642534 268.23546321 570.80642534 268.57546321 605.14642534 C300.25546321 605.64142534 300.25546321 605.64142534 332.57546321 606.14642534 C332.67858821 613.61267534 332.78171321 621.07892534 332.88796321 628.77142534 C332.95624323 632.26083696 332.95624323 632.26083696 333.02590266 635.82074174 C333.20342124 651.39816119 331.30646416 663.44206298 321.57546321 676.14642534 C320.89483821 677.11580034 320.21421321 678.08517534 319.51296321 679.08392534 C317.34689201 681.38974306 315.57653653 682.22943071 312.57546321 683.14642534 C312.57546321 683.80642534 312.57546321 684.46642534 312.57546321 685.14642534 C311.91546321 685.14642534 311.25546321 685.14642534 310.57546321 685.14642534 C310.57546321 685.80642534 310.57546321 686.46642534 310.57546321 687.14642534 C309.20261164 687.67042924 309.20261164 687.67042924 307.80202571 688.20501909 C306.61351008 688.66005815 305.42499446 689.11509721 304.20046321 689.58392534 C303.01710383 690.03638627 301.83374446 690.48884721 300.61452571 690.95501909 C297.71510128 692.03914445 297.71510128 692.03914445 295.57546321 693.14642534 C285.24933309 693.80324905 276.05684124 693.82446208 266.57546321 689.14642534 C266.57546321 688.48642534 266.57546321 687.82642534 266.57546321 687.14642534 C265.51005305 687.04201127 265.51005305 687.04201127 264.42311946 686.93548784 C257.70869754 685.07497587 251.36435061 678.07379091 247.88796321 672.14642534 C246.57546321 669.14642534 246.57546321 669.14642534 246.57546321 667.14642534 C245.91546321 667.14642534 245.25546321 667.14642534 244.57546321 667.14642534 C241.81043885 659.58869209 241.42919517 652.37018368 241.45520869 644.4210988 C241.45392705 642.97880046 241.45392705 642.97880046 241.45261952 641.50736478 C241.45097643 638.295317 241.45646692 635.0833218 241.46193781 631.87127885 C241.46221996 629.56485695 241.46206141 627.25843496 241.46149531 624.95201311 C241.46120842 618.69642091 241.46708767 612.44084789 241.47406927 606.18526015 C241.48032082 599.6456184 241.48090803 593.10597622 241.48209468 586.56633195 C241.484683 575.59180566 241.49109564 564.61728609 241.50002375 553.64276323 C241.5092085 542.34100577 241.51628413 531.03925023 241.52053156 519.73748979 C241.52092565 518.69181294 241.52092565 518.69181294 241.5213277 517.6250113 C241.52263277 514.12763308 241.52389647 510.63025485 241.5251396 507.1328766 C241.53549942 478.13738828 241.55318111 449.1419069 241.57546321 420.14642534 C243.02952571 419.71330034 243.02952571 419.71330034 244.51296321 419.27142534 C247.68210524 418.50427852 247.68210524 418.50427852 248.57546321 416.14642534 C251.63693217 414.17833815 253.97711288 413.94651699 257.57546321 414.14642534 C257.57546321 413.48642534 257.57546321 412.82642534 257.57546321 412.14642534 C258.29991633 411.89248002 259.02436946 411.63853471 259.77077571 411.37689409 C265.85235678 409.22399523 265.85235678 409.22399523 271.70046321 406.52142534 C275.54248143 404.68393836 279.41159885 403.94245823 283.57546321 403.14642534 C284.58608821 402.94017534 285.59671321 402.73392534 286.63796321 402.52142534 C287.27733821 402.39767534 287.91671321 402.27392534 288.57546321 402.14642534 C288.57546321 401.48642534 288.57546321 400.82642534 288.57546321 400.14642534 C291.94643704 398.64821474 293.7798844 398.14642534 297.57546321 398.14642534 C297.57546321 397.48642534 297.57546321 396.82642534 297.57546321 396.14642534 C300.66356016 394.38179851 301.80858456 394.14642534 305.57546321 394.14642534 C305.08046321 346.13142534 305.08046321 346.13142534 304.57546321 297.14642534 C299.09563082 294.69140107 299.09563082 294.69140107 293.57546321 293.14642534 C293.57546321 292.48642534 293.57546321 291.82642534 293.57546321 291.14642534 C292.53518977 290.9724019 292.53518977 290.9724019 291.47390071 290.79486284 C288.22920215 290.06895993 285.29570136 288.98452343 282.20046321 287.77142534 C281.05835383 287.32412065 279.91624446 286.87681596 278.73952571 286.41595659 C275.32490212 285.04589157 271.94599691 283.62103383 268.57546321 282.14642534 C266.91124971 281.47365818 265.24559738 280.80435698 263.57546321 280.14642534 C263.57546321 279.48642534 263.57546321 278.82642534 263.57546321 278.14642534 C262.70147883 278.15996049 262.70147883 278.15996049 261.80983821 278.17376909 C254.02441654 277.89222082 247.20210248 275.69462839 241.57546321 270.14642534 C239.81945014 264.7348211 240.05358023 259.45101517 240.21315852 253.83807573 C240.21654601 252.17204226 240.21463827 250.50599089 240.20784846 248.83996782 C240.20441125 244.32861658 240.27484312 239.82111004 240.35873595 235.31065115 C240.43386221 230.59297706 240.44080895 225.87521016 240.45504084 221.15703019 C240.49230774 212.22804954 240.59073407 203.30083646 240.71123472 194.37263349 C240.84546431 184.20604674 240.91136676 174.03937459 240.97157994 163.87212202 C241.09694027 142.96257066 241.30794596 122.05460943 241.57546321 101.14642534 C239.71905081 101.15195609 239.71905081 101.15195609 237.82513514 101.15759858 C208.3908514 101.24438861 178.95659693 101.31026653 149.5222168 101.35068665 C145.8926672 101.35568897 142.26311787 101.36086631 138.63356867 101.3661519 C137.91104625 101.36720114 137.18852383 101.36825038 136.44410679 101.36933142 C124.77309362 101.38669653 113.10215994 101.41821252 101.4311938 101.45503652 C89.4394299 101.49255475 77.4477074 101.51468408 65.45588723 101.52277932 C58.7270936 101.52775649 51.99849078 101.54014547 45.26975337 101.56934556 C38.9266814 101.59664705 32.58386202 101.6048406 26.24073687 101.59885606 C23.92213589 101.59994973 21.6035258 101.60781507 19.28497592 101.62324724 C-8.1241533 101.79661708 -8.1241533 101.79661708 -19.42453679 96.14642534 C-19.42453679 95.48642534 -19.42453679 94.82642534 -19.42453679 94.14642534 C-20.16961492 94.04330034 -20.91469304 93.94017534 -21.68234929 93.83392534 C-30.16122094 91.70816834 -36.64753713 81.74605527 -40.93625554 74.64251909 C-45.09326558 67.22183929 -45.66991858 62.33100813 -45.71970281 53.72748002 C-45.73114038 52.35432764 -45.75145974 50.98121676 -45.78122625 49.6083394 C-45.96921564 40.93352147 -45.5065809 33.90680758 -41.42453679 26.14642534 C-40.76453679 26.14642534 -40.10453679 26.14642534 -39.42453679 26.14642534 C-39.28016179 25.36267534 -39.13578679 24.57892534 -38.98703679 23.77142534 C-38.42453679 21.14642534 -38.42453679 21.14642534 -37.42453679 19.14642534 C-36.76453679 19.14642534 -36.10453679 19.14642534 -35.42453679 19.14642534 C-35.15641179 18.54830034 -34.88828679 17.95017534 -34.61203679 17.33392534 C-33.42536273 15.1479468 -32.32854567 13.7330994 -30.42453679 12.14642534 C-29.76453679 12.14642534 -29.10453679 12.14642534 -28.42453679 12.14642534 C-28.42453679 11.48642534 -28.42453679 10.82642534 -28.42453679 10.14642534 C-26.59641179 8.70892534 -26.59641179 8.70892534 -24.17453679 7.14642534 C-23.38563054 6.63080034 -22.59672429 6.11517534 -21.78391179 5.58392534 C-18.20123684 3.40110351 -15.44769271 1.95522145 -11.23703679 1.58392534 C-7.16049343 1.11612528 -4.3214341 0.02208047 0 0 Z " fill="#E5E5E5" transform="translate(225.42453679442406,193.85357466340065)"/>
<path d="M0 0 C1.65 0 3.3 0 5 0 C5 0.66 5 1.32 5 2 C5.9590625 2.1546875 5.9590625 2.1546875 6.9375 2.3125 C12.53190183 3.56838613 17.91521936 5.33654348 23 8 C23 8.66 23 9.32 23 10 C23.85851562 10.12246094 24.71703125 10.24492187 25.6015625 10.37109375 C29.00686898 11.00127116 32.10342101 11.93562279 35.375 13.0625 C36.43460937 13.42472656 37.49421875 13.78695313 38.5859375 14.16015625 C39.38257813 14.43730469 40.17921875 14.71445312 41 15 C41 15.66 41 16.32 41 17 C41.61488281 17.03738281 42.22976563 17.07476562 42.86328125 17.11328125 C43.67152344 17.17902344 44.47976563 17.24476563 45.3125 17.3125 C46.11300781 17.37050781 46.91351563 17.42851562 47.73828125 17.48828125 C50.43593563 18.09863138 51.10042243 19.06165554 53 21 C55.49018012 21.99988926 55.49018012 21.99988926 58.1875 22.6875 C59.08855469 22.93886719 59.98960937 23.19023437 60.91796875 23.44921875 C61.60503906 23.63097656 62.29210937 23.81273437 63 24 C63 24.66 63 25.32 63 26 C64.65 26 66.3 26 68 26 C68 26.66 68 27.32 68 28 C69.216875 28.12375 70.43375 28.2475 71.6875 28.375 C75.06479059 28.78891306 77.89756695 29.54573451 81 31 C81 31.66 81 32.32 81 33 C81.928125 33.0825 82.85625 33.165 83.8125 33.25 C89.12534498 33.98242925 94.02778798 36.06686151 99 38 C99 38.99 99 39.98 99 41 C101.97 41.33 104.94 41.66 108 42 C108 42.66 108 43.32 108 44 C109.216875 44.103125 110.43375 44.20625 111.6875 44.3125 C115.50184935 44.63574995 117.7522667 46.02730273 121 48 C123.14968745 48.8169898 125.31856158 49.58451998 127.5 50.3125 C133.53502516 52.40422076 139.22759376 54.89590242 145 57.640625 C148.92721265 59.42014323 152.8789933 60.74274372 157 62 C157 62.66 157 63.32 157 64 C158.010625 64.0825 159.02125 64.165 160.0625 64.25 C163.53239519 64.7397864 165.87249712 66.03039413 168.8515625 67.890625 C172.65571858 69.85495287 176.78979197 70.8552536 180.88671875 72.05078125 C184.4123549 73.12572427 187.6626102 74.44772568 191 76 C191 76.66 191 77.32 191 78 C191.71542969 77.95875 192.43085938 77.9175 193.16796875 77.875 C196.30819586 78.01360313 198.43211348 78.77103509 201.3125 80 C202.19550781 80.37125 203.07851563 80.7425 203.98828125 81.125 C204.65214844 81.41375 205.31601562 81.7025 206 82 C206 82.66 206 83.32 206 84 C208.64 84.33 211.28 84.66 214 85 C214 85.66 214 86.32 214 87 C215.2375 87.226875 216.475 87.45375 217.75 87.6875 C223.81734976 89.02193294 229.325946 91.5275072 235 94 C236.66414626 94.67293346 238.32999182 95.3417486 240 96 C240 96.66 240 97.32 240 98 C241.32 98.33 242.64 98.66 244 99 C244 99.66 244 100.32 244 101 C245.5159375 100.9071875 245.5159375 100.9071875 247.0625 100.8125 C251.39947898 101.01902281 254.07744088 102.21701858 258 104 C259.98821313 104.39764263 261.98732362 104.75455166 264 105 C264 105.66 264 106.32 264 107 C264.639375 107.0825 265.27875 107.165 265.9375 107.25 C268.50012926 107.87758268 270.44458009 108.59426495 272.8125 109.6875 C279.70969554 112.86630951 286.87764831 115.37827545 294 118 C294 118.66 294 119.32 294 120 C294.886875 120.12375 295.77375 120.2475 296.6875 120.375 C303.69767442 121.69767442 303.69767442 121.69767442 306 124 C306.09529612 127.01350238 306.12551904 130.00404106 306.11352539 133.01782227 C306.11367142 133.96406464 306.11381744 134.91030701 306.1139679 135.88522339 C306.11326836 139.02897392 306.10547409 142.17266601 306.09765625 145.31640625 C306.09579221 147.48974068 306.09436824 149.66307552 306.09336853 151.83641052 C306.08954221 157.56901195 306.07971097 163.30158823 306.06866455 169.03417969 C306.05845287 174.87890279 306.05387143 180.72362993 306.04882812 186.56835938 C306.0380888 198.045584 306.02101102 209.52278991 306 221 C303.09399739 222.25664978 301.20395416 223 298 223 C298 223.66 298 224.32 298 225 C295.03 225.66 292.06 226.32 289 227 C289 227.66 289 228.32 289 229 C285.26028463 230.44339892 281.62167556 231.83262581 277.75 232.875 C273.2496418 234.22510746 269.05993179 236.07094172 264.76953125 237.9765625 C262 239 262 239 258 239 C258 239.66 258 240.32 258 241 C257.1646875 241.27263672 257.1646875 241.27263672 256.3125 241.55078125 C248.58964059 244.09319952 248.58964059 244.09319952 241 247 C240.67 247.66 240.34 248.32 240 249 C238.11105677 249.74208484 236.21777695 250.47493307 234.3046875 251.15234375 C232.02624136 251.99034852 229.8353074 252.93460251 227.625 253.9375 C224.32911372 255.41693595 221.02373953 256.86357447 217.6875 258.25 C216.88699219 258.58515625 216.08648437 258.9203125 215.26171875 259.265625 C213 260 213 260 209 260 C209 260.66 209 261.32 209 262 C207.88625 262.4125 206.7725 262.825 205.625 263.25 C202.39899591 264.45832662 199.19572477 265.71379498 196 267 C193.01202799 268.20247654 190.01974967 269.37977028 187 270.5 C178.56870095 273.62992779 170.2626406 277.10032586 161.9375 280.5 C161.00873047 280.87769531 160.07996094 281.25539063 159.12304688 281.64453125 C154.04116178 283.72008011 148.99851079 285.85665669 143.99926758 288.12451172 C140.71811867 289.56134161 137.36265982 290.76702473 134 292 C133.113125 292.391875 132.22625 292.78375 131.3125 293.1875 C128.74398721 294.08995044 126.70278046 294.1544446 124 294 C124 294.66 124 295.32 124 296 C107.15078408 303.06393245 107.15078408 303.06393245 98.6640625 306.25390625 C97.51679688 306.68574219 96.36953125 307.11757813 95.1875 307.5625 C94.12917969 307.95566406 93.07085937 308.34882812 91.98046875 308.75390625 C89.12034494 309.9496854 86.64832421 311.40232244 84 313 C82.57965396 313.52784853 81.14110164 314.00965747 79.6875 314.4375 C76.69273431 315.38166258 74.00991172 316.44376342 71.25 317.9375 C66.80190204 320.2720882 62.12317921 321.51827502 57.31640625 322.921875 C54.1045132 323.96602398 51.1685277 325.23062567 48.125 326.6875 C43.97663407 328.66753996 40.577238 329.6948508 36 330 C36 330.66 36 331.32 36 332 C35.16339844 332.27972656 34.32679688 332.55945313 33.46484375 332.84765625 C26.14388104 335.36905094 19.14880224 338.16562701 12.23999023 341.67602539 C7.86068199 343.83391909 5.13771726 344.26604039 0 345 C0 299.79 0 254.58 0 208 C5.61 206.35 11.22 204.7 17 203 C21.43705593 201.0357755 21.43705593 201.0357755 25.80078125 198.91796875 C28 198 28 198 32 198 C32 197.34 32 196.68 32 196 C34.97 195.67 37.94 195.34 41 195 C41 194.34 41 193.68 41 193 C42.75763672 192.43732422 42.75763672 192.43732422 44.55078125 191.86328125 C52.53907483 189.2719775 60.31764639 186.67775944 67.8359375 182.8828125 C70 182 70 182 74 182 C74 181.34 74 180.68 74 180 C75.65 180 77.3 180 79 180 C79 179.34 79 178.68 79 178 C80.1446875 177.566875 80.1446875 177.566875 81.3125 177.125 C84.15029308 176.03730987 84.15029308 176.03730987 87 174 C88.32 174 89.64 174 91 174 C91 173.34 91 172.68 91 172 C90.071875 171.773125 89.14375 171.54625 88.1875 171.3125 C84.93993734 170.3901922 81.99087117 169.12384916 78.9375 167.6875 C74.63237512 165.67132581 70.30383623 163.99552242 65.8125 162.4375 C60.61254807 160.62832635 55.86341371 158.56434541 51 156 C47.33735686 154.42678416 43.64237815 153.28375014 39.8125 152.1875 C34.66670826 150.63273993 30.10338258 148.68749337 25.3671875 146.171875 C21.71420738 144.363469 17.9000148 143.15870005 14 142 C14 141.34 14 140.68 14 140 C13.01 139.814375 13.01 139.814375 12 139.625 C1.42105263 137.42105263 1.42105263 137.42105263 0 136 C-0.09632045 134.2410657 -0.1218751 132.47822841 -0.12025452 130.71665955 C-0.12162918 129.57095993 -0.12300385 128.42526031 -0.12442017 127.24484253 C-0.12082489 125.97673737 -0.11722961 124.7086322 -0.11352539 123.40209961 C-0.11324352 122.06206769 -0.11340125 120.72203561 -0.1139679 119.38200378 C-0.11425587 115.73340562 -0.1083592 112.08484005 -0.10139394 108.43624949 C-0.09516034 104.62722484 -0.0945566 100.8181995 -0.09336853 97.00917053 C-0.09025523 89.79142246 -0.08204186 82.57368946 -0.07201904 75.35594803 C-0.06085786 67.14084743 -0.05534744 58.92574612 -0.05032361 50.71063983 C-0.03985925 33.80708449 -0.02225983 16.90354384 0 0 Z " fill="#141A20" transform="translate(225,367)"/>
<path d="M0 0 C1.32 0 2.64 0 4 0 C4 0.66 4 1.32 4 2 C4.59425781 2.17015625 5.18851562 2.3403125 5.80078125 2.515625 C14.03088043 4.92193705 22.0506053 7.78884415 30 11 C30 11.66 30 12.32 30 13 C30.763125 13.0825 31.52625 13.165 32.3125 13.25 C41.03712852 15.02450072 49.04834601 18.83619356 57.0546875 22.6328125 C61.74551929 24.81025431 65.8589058 26.28263802 71 27 C71 27.66 71 28.32 71 29 C71.5775 29.144375 72.155 29.28875 72.75 29.4375 C75.875 30.21875 75.875 30.21875 79 31 C79 31.66 79 32.32 79 33 C79.845625 33.0825 80.69125 33.165 81.5625 33.25 C84.94816006 33.98868947 87.1679512 35.23316228 90.08984375 37.03125 C92.20090329 38.1018896 94.05027523 38.51702804 96.375 38.9375 C100.78658503 39.76888529 104.00591761 41.5746091 107.8359375 43.8515625 C110.36891446 45.19577771 112.89143377 45.70830903 115.68359375 46.29296875 C118.75695192 47.23104266 121.40817621 48.6884795 124.25 50.1875 C130.92469726 53.70757728 137.81399628 56.18579238 144.98339844 58.5144043 C148.81489863 59.78075405 152.3200305 61.06832861 155.7890625 63.1484375 C158.76224988 64.86290321 160.59810208 65.53188262 163.9375 65.9375 C168.43366109 66.69933062 171.342726 68.21955324 175.07421875 70.76953125 C178.8471118 73.18020328 183.08817864 74.39052675 187.328125 75.7421875 C188.49601562 76.11730469 188.49601562 76.11730469 189.6875 76.5 C190.39261719 76.7165625 191.09773437 76.933125 191.82421875 77.15625 C194 78 194 78 196.37109375 79.43359375 C202.28631102 82.95811399 209.20600207 85.36493689 215.875 87.0625 C219 88 219 88 222.3125 89.9375 C226.84415671 92.6470648 226.84415671 92.6470648 236 95 C236 112.16 236 129.32 236 147 C228.13477975 151.49441157 228.13477975 151.49441157 224.3125 152.1875 C223.58675781 152.32542969 222.86101562 152.46335937 222.11328125 152.60546875 C220.67602299 152.87379238 219.23564618 153.12581399 217.79296875 153.36328125 C217.20128906 153.57339844 216.60960937 153.78351563 216 154 C215.67 154.99 215.34 155.98 215 157 C212.41796875 158.09765625 212.41796875 158.09765625 209.1875 159.0625 C205.59909404 160.15082288 202.32570343 161.27582837 199 163 C197.38773015 163.47024537 195.77452619 163.93757854 194.15625 164.38671875 C185.85630305 166.74739207 178.06683002 169.72029401 170.33984375 173.5378418 C167.30328348 175.0185775 164.37352911 176.23370456 161.11328125 177.0859375 C159.57220703 177.53839844 159.57220703 177.53839844 158 178 C157.67 178.66 157.34 179.32 157 180 C154.52984421 181.04037849 152.08512956 181.98065187 149.5625 182.875 C148.08819029 183.41049192 146.61423048 183.94694816 145.140625 184.484375 C144.42455078 184.74412109 143.70847656 185.00386719 142.97070312 185.27148438 C140.55887129 186.16307335 138.18543043 187.13496942 135.8125 188.125 C131.00122041 190.08696003 126.06950487 191.5404007 121.078125 192.97265625 C117.91500582 193.94520247 117.91500582 193.94520247 114.796875 195.62109375 C112 197 112 197 109 197 C108.67 197.99 108.34 198.98 108 200 C106.21484375 200.625 106.21484375 200.625 103.9375 201 C99.34708416 201.88135984 95.30113259 203.15665746 91 205 C90.67 205.66 90.34 206.32 90 207 C88.12988281 207.9296875 88.12988281 207.9296875 85.703125 208.875 C84.8265625 209.22046875 83.95 209.5659375 83.046875 209.921875 C82.12390625 210.27765625 81.2009375 210.6334375 80.25 211 C79.3425 211.35578125 78.435 211.7115625 77.5 212.078125 C75.79712731 212.74533243 74.09313765 213.40970098 72.38769531 214.0703125 C70.7198096 214.71973058 69.05809239 215.38511668 67.40136719 216.0625 C65 217 65 217 61.75 217.875 C57.96339034 219.0109829 54.57204208 220.49171411 51.015625 222.1953125 C49 223 49 223 46 223 C46 223.66 46 224.32 46 225 C25.78125 232.90625 25.78125 232.90625 19 234 C19 234.66 19 235.32 19 236 C17.15047952 236.82302143 15.29511436 237.63291366 13.4375 238.4375 C12.40496094 238.88996094 11.37242187 239.34242188 10.30859375 239.80859375 C6.84845419 241.0545708 3.63685493 241.5300587 0 242 C-0.06943556 234.21156603 -0.12277821 226.42320423 -0.15543652 218.63453865 C-0.17110901 215.0181296 -0.19237553 211.40193192 -0.22631836 207.78564453 C-0.25885631 204.29730012 -0.27684108 200.80915932 -0.28463173 197.3206749 C-0.29289269 195.33856231 -0.31632087 193.35653191 -0.33988953 191.37454224 C-0.34011612 190.17344818 -0.34034271 188.97235413 -0.34057617 187.73486328 C-0.34723801 186.67341095 -0.35389984 185.61195862 -0.36076355 184.51834106 C-0.24171158 183.68728851 -0.12265961 182.85623596 0 182 C3 180 3 180 6 180 C6 179.34 6 178.68 6 178 C7.32451172 177.65388672 7.32451172 177.65388672 8.67578125 177.30078125 C15.48290775 175.45093914 21.89314175 173.34586589 28.2734375 170.296875 C35.35610061 166.92804383 42.45740949 164.13469543 50 162 C52.31944799 160.97928402 54.60816608 159.91361012 56.88671875 158.8046875 C59 158 59 158 63 158 C63 157.34 63 156.68 63 156 C63.60328125 155.86722656 64.2065625 155.73445312 64.828125 155.59765625 C66.02695312 155.33275391 66.02695312 155.33275391 67.25 155.0625 C68.03890625 154.88847656 68.8278125 154.71445312 69.640625 154.53515625 C70.80851562 154.27025391 70.80851562 154.27025391 72 154 C72.73734375 153.87496094 73.4746875 153.74992188 74.234375 153.62109375 C74.81703125 153.41613281 75.3996875 153.21117187 76 153 C76.33 152.01 76.66 151.02 77 150 C79.52734375 149.11328125 79.52734375 149.11328125 82.9375 148.3125 C89.82648506 146.49516038 96.07136762 143.92258101 102.51733398 140.90551758 C106.92694908 138.85607652 111.3166145 137.13861119 115.95825195 135.68261719 C117.99482855 135.00172897 119.91729863 134.192584 121.875 133.3125 C125 132 125 132 128 132 C128 131.34 128 130.68 128 130 C128.76183594 129.82984375 129.52367187 129.6596875 130.30859375 129.484375 C136.25457491 128.08881388 141.68431834 126.49215457 147.16015625 123.76953125 C149 123 149 123 152 123 C152 122.01 152 121.02 152 120 C151.39671875 119.89042969 150.7934375 119.78085937 150.171875 119.66796875 C148.97304688 119.43013672 148.97304688 119.43013672 147.75 119.1875 C146.56664062 118.96126953 146.56664062 118.96126953 145.359375 118.73046875 C143 118 143 118 140.99609375 116.484375 C138.68593678 114.76645005 137.14006969 114.46773946 134.3125 114.0625 C129.07754362 113.13371742 124.76229345 111.29846802 120 109 C118.31483864 108.24476 116.62738685 107.49460639 114.9375 106.75 C113.625 106.16666667 112.3125 105.58333333 111 105 C111 104.34 111 103.68 111 103 C110.17371094 103.06832031 109.34742188 103.13664063 108.49609375 103.20703125 C104.11348973 102.94750274 100.99326283 101.53573948 97.0625 99.6875 C95.6993057 99.06621544 94.3360251 98.44512019 92.97265625 97.82421875 C92.30717773 97.51798584 91.64169922 97.21175293 90.95605469 96.89624023 C85.91347474 94.58579203 80.95683272 92.59622472 75.625 91.0625 C70.95085403 89.66347236 66.57511043 88.07525653 62.1953125 85.9296875 C59.89230118 84.89572873 59.89230118 84.89572873 56.91015625 84.1640625 C51.85026835 82.76995656 47.11387836 80.59453857 42.3125 78.5 C40.90774414 77.89478516 40.90774414 77.89478516 39.47460938 77.27734375 C32.54878746 74.28159209 32.54878746 74.28159209 29.88745117 72.91601562 C27.88421432 71.86588396 27.88421432 71.86588396 25.0625 71.25 C20.23082385 69.9587762 15.85248273 67.63312036 11.37890625 65.4375 C7.32904705 63.61039512 7.32904705 63.61039512 0 62 C0 41.54 0 21.08 0 0 Z " fill="#00BD62" transform="translate(260,418)"/>
<path d="M0 0 C12.01719911 0.01365142 24.03440239 0.01874096 36.05160737 0.02450979 C54.80253918 0.03372043 73.55344276 0.05369526 92.30437303 0.07202661 C92.30437303 34.06202661 92.30437303 68.05202661 92.30437303 103.07202661 C51.07884714 103.11232964 51.07884714 103.11232964 33.31999803 103.12085474 C21.23047528 103.12670618 9.14095977 103.13347291 -2.94855666 103.14746606 C-74.27785064 103.22842372 -74.27785064 103.22842372 -103.14972854 102.84497583 C-103.88451289 102.83521793 -104.61929724 102.82546003 -105.37634778 102.81540644 C-119.81699678 102.61855942 -134.2560097 102.33467791 -148.69562697 102.07202661 C-148.69562697 68.74202661 -148.69562697 35.41202661 -148.69562697 1.07202661 C-114.45674119 0.44923393 -114.45674119 0.44923393 -103.14972854 0.29907739 C-102.35742103 0.28855474 -101.56511353 0.27803209 -100.7487967 0.26719058 C-67.16855577 -0.16690708 -33.58227694 -0.03887021 0 0 Z " fill="#14191F" transform="translate(641.6956269741058,696.9279733896255)"/>
<path d="M0 0 C56.43 0 112.86 0 171 0 C171 10.56 171 21.12 171 32 C114.57 32 58.14 32 0 32 C0 21.44 0 10.88 0 0 Z " fill="#727272" transform="translate(528,733)"/>
<path d="M0 0 C79.86 0 159.72 0 242 0 C242 0.33 242 0.66 242 1 C162.8 1 83.6 1 2 1 C2 133.99 2 266.98 2 404 C-19.45 404 -40.9 404 -63 404 C-62.67 437.33 -62.34 470.66 -62 505 C-30.32 505.495 -30.32 505.495 2 506 C2.04125 513.6725 2.0825 521.345 2.125 529.25 C2.14320801 531.66731445 2.16141602 534.08462891 2.18017578 536.57519531 C2.18601743 538.49283628 2.19111377 540.41047973 2.1953125 542.328125 C2.20554443 543.32247559 2.21577637 544.31682617 2.22631836 545.34130859 C2.22668091 546.77192627 2.22668091 546.77192627 2.22705078 548.23144531 C2.231492 549.05751282 2.23593323 549.88358032 2.24050903 550.73468018 C2 553 2 553 0 557 C0.33 540.5 0.66 524 1 507 C-20.45 507 -41.9 507 -64 507 C-64 472.35 -64 437.7 -64 402 C-42.88 402 -21.76 402 0 402 C0 269.34 0 136.68 0 0 Z " fill="#A0A0A1" transform="translate(556,294)"/>
<path d="M0 0 C57.42 0 114.84 0 174 0 C174 11.55 174 23.1 174 35 C151.46087147 35.02254502 128.92175202 35.040978 106.38261509 35.05181217 C95.91807719 35.05697564 85.45354677 35.06401929 74.98901367 35.07543945 C65.87160565 35.08538476 56.75420304 35.09185306 47.63678974 35.09408849 C42.80606124 35.09539586 37.97534825 35.09848336 33.14462471 35.10573006 C28.60326313 35.11248785 24.06192353 35.11461746 19.5205574 35.11310768 C17.84875431 35.11338412 16.17695052 35.11539066 14.50515175 35.11920547 C12.23274147 35.12413898 9.96041554 35.12299958 7.68800354 35.12025452 C6.41316384 35.12117631 5.13832415 35.1220981 3.82485294 35.12304783 C1 35 1 35 0 34 C0 22.78 0 11.56 0 0 Z M2 1 C2 11.56 2 22.12 2 33 C58.43 33 114.86 33 173 33 C173 22.44 173 11.88 173 1 C116.57 1 60.14 1 2 1 Z " fill="#3D4044" transform="translate(526,732)"/>
<path d="M0 0 C80.19 0 160.38 0 243 0 C243.33 55.77 243.66 111.54 244 169 C245.98 169.99 247.96 170.98 250 172 C250 172.33 250 172.66 250 173 C248.35 173 246.7 173 245 173 C245 172.34 245 171.68 245 171 C244.01 170.67 243.02 170.34 242 170 C242 114.23 242 58.46 242 1 C162.14 1 82.28 1 0 1 C0 0.67 0 0.34 0 0 Z " fill="#4B4B4B" transform="translate(224,295)"/>
<path d="M0 0 C1.485 0.99 1.485 0.99 3 2 C3.25616216 5.05290084 3.31849805 7.89702233 3.2487793 10.94775391 C3.23946381 11.87463516 3.23014832 12.80151642 3.22055054 13.75648499 C3.1860853 16.83020963 3.13020737 19.90316065 3.07421875 22.9765625 C3.04619629 25.10361061 3.01950476 27.23067664 2.99409485 29.35775757 C2.9235311 34.96399488 2.83482971 40.56980591 2.74243164 46.17572021 C2.63537976 52.89774556 2.55071052 59.62008508 2.46231842 66.34237671 C2.32541953 76.56192943 2.15997827 86.78066503 2 97 C21.8 97 41.6 97 62 97 C62 97.33 62 97.66 62 98 C42.2 98 22.4 98 2 98 C2 98.66 2 99.32 2 100 C1.34 100 0.68 100 0 100 C0 67 0 34 0 0 Z " fill="#0A0E15" transform="translate(494,699)"/>
<path d="M0 0 C0.33 0 0.66 0 1 0 C1.33 55.77 1.66 111.54 2 169 C3.98 169.99 5.96 170.98 8 172 C8 172.33 8 172.66 8 173 C6.35 173 4.7 173 3 173 C3 172.34 3 171.68 3 171 C2.01 170.67 1.02 170.34 0 170 C0 113.9 0 57.8 0 0 Z " fill="#717171" transform="translate(466,295)"/>
<path d="M0 0 C0.66 0.33 1.32 0.66 2 1 C1.67 20.14 1.34 39.28 1 59 C3.64 58.01 6.28 57.02 9 56 C10.32 56.33 11.64 56.66 13 57 C11.23141309 57.67260351 9.46003984 58.33788395 7.6875 59 C6.70136719 59.37125 5.71523438 59.7425 4.69921875 60.125 C2 61 2 61 -1 61 C-1.02312792 53.19424805 -1.04091738 45.38850405 -1.05181217 37.58272648 C-1.05704002 33.9585404 -1.06413587 30.3343777 -1.07543945 26.71020508 C-1.08627184 23.21540025 -1.09227758 19.72061796 -1.09487724 16.22579765 C-1.09763551 14.23760611 -1.10544688 12.24942369 -1.11329651 10.26124573 C-1.11337204 9.06007614 -1.11344757 7.85890656 -1.11352539 6.62133789 C-1.115746 5.55766495 -1.11796661 4.493992 -1.12025452 3.39808655 C-1 1 -1 1 0 0 Z " fill="#049652" transform="translate(261,599)"/>
<path d="M0 0 C1.32 0 2.64 0 4 0 C4 0.66 4 1.32 4 2 C4.66 2.33 5.32 2.66 6 3 C5.01 3.33 4.02 3.66 3 4 C2.67 23.14 2.34 42.28 2 62 C1.34 62 0.68 62 0 62 C0 41.54 0 21.08 0 0 Z " fill="#049853" transform="translate(260,418)"/>
<path d="M0 0 C-1.65 0.33 -3.3 0.66 -5 1 C-5 1.66 -5 2.32 -5 3 C-6.65 3 -8.3 3 -10 3 C-10 3.66 -10 4.32 -10 5 C-10.9178125 5.32613281 -11.835625 5.65226563 -12.78125 5.98828125 C-14.62203125 6.64376953 -14.62203125 6.64376953 -16.5 7.3125 C-17.1384082 7.5396167 -17.77681641 7.7667334 -18.43457031 8.00073242 C-21.88861021 9.23312895 -25.32784181 10.49433536 -28.75 11.8125 C-32 13 -32 13 -34 13 C-34 12.34 -34 11.68 -34 11 C-32.58603098 10.49242138 -31.16868271 9.99425075 -29.75 9.5 C-28.96109375 9.2215625 -28.1721875 8.943125 -27.359375 8.65625 C-25 8 -25 8 -21 8 C-21 7.34 -21 6.68 -21 6 C-17.49223216 4.39644899 -14.85645121 3.77963136 -11 4 C-11 3.34 -11 2.68 -11 2 C-9.54494642 1.47007308 -8.08581873 0.9513211 -6.625 0.4375 C-5.81289063 0.14746094 -5.00078125 -0.14257812 -4.1640625 -0.44140625 C-2 -1 -2 -1 0 0 Z " fill="#25272A" transform="translate(309,544)"/>
<path d="M0 0 C0 0.66 0 1.32 0 2 C-0.89460938 2.31453125 -1.78921875 2.6290625 -2.7109375 2.953125 C-8.35592004 4.95113588 -13.96926436 6.94975521 -19.5 9.25 C-22.98649532 10.67681657 -26.22664243 11.60280447 -30 12 C-30 11.34 -30 10.68 -30 10 C-28.60974609 9.58427734 -28.60974609 9.58427734 -27.19140625 9.16015625 C-25.99386719 8.79792969 -24.79632813 8.43570313 -23.5625 8.0625 C-21.77005859 7.52302734 -21.77005859 7.52302734 -19.94140625 6.97265625 C-17.14132455 6.29110858 -17.14132455 6.29110858 -16 5 C-14.33382885 4.95936168 -12.66611905 4.957279 -11 5 C-11 4.34 -11 3.68 -11 3 C-9.54293274 2.49632243 -8.08429904 1.99717444 -6.625 1.5 C-5.81289062 1.2215625 -5.00078125 0.943125 -4.1640625 0.65625 C-2 0 -2 0 0 0 Z " fill="#25272A" transform="translate(257,563)"/>
<path d="M0 0 C0.66 0.33 1.32 0.66 2 1 C-2.99893918 3.7266941 -7.31292741 5.43542946 -12.89453125 6.4921875 C-15.28068151 6.98141752 -15.28068151 6.98141752 -18.3125 8.6875 C-21.33484121 10.1635271 -21.94813661 9.96956854 -25 9 C-17.71998049 6.15325357 -10.44504388 3.38499241 -3 1 C-2.01 0.67 -1.02 0.34 0 0 Z " fill="#087F48" transform="translate(394,606)"/>
<path d="M0 0 C0.66 0.33 1.32 0.66 2 1 C1.360625 1.28875 0.72125 1.5775 0.0625 1.875 C-2.15206079 2.82823451 -2.15206079 2.82823451 -3 5 C-8.04706509 7.17545909 -12.5487185 8.43215818 -18 9 C-16.44464191 5.88928381 -13.88562714 5.66683615 -10.6875 4.5 C-6.10637354 2.84526208 -6.10637354 2.84526208 -1.70703125 0.78125 C-1.14371094 0.5234375 -0.58039063 0.265625 0 0 Z " fill="#0B5C3A" transform="translate(448,583)"/>
<path d="M0 0 C0 0.66 0 1.32 0 2 C-1.65 2 -3.3 2 -5 2 C-5 2.66 -5 3.32 -5 4 C-6.4117783 4.53394179 -7.82970244 5.05165104 -9.25 5.5625 C-10.03890625 5.85253906 -10.8278125 6.14257812 -11.640625 6.44140625 C-14.19103452 7.04522837 -15.55322229 6.8473932 -18 6 C-12.33627962 2.96586408 -6.59531296 0 0 0 Z " fill="#087946" transform="translate(380,553)"/>
<path d="M0 0 C1.98 0 3.96 0 6 0 C4.13497412 2.62799102 2.69589209 3.86365751 -0.4921875 4.48828125 C-2.9964272 4.72593573 -5.48653979 4.9040664 -8 5 C-5.08235 3.0549 -3.37462715 2.54723683 0 2 C0 1.34 0 0.68 0 0 Z " fill="#07834A" transform="translate(388,548)"/>
<path d="M0 0 C2.0625 0.4375 2.0625 0.4375 4 1 C1.35261084 2.4606285 0.10551666 3 -3 3 C-3 3.66 -3 4.32 -3 5 C-6.4019487 7.09350689 -9.05272412 7.17942163 -13 7 C-9.84906684 4.24293349 -6.60395471 2.99320144 -2.70703125 1.6484375 C-0.99486039 1.13150184 -0.99486039 1.13150184 0 0 Z " fill="#0B623C" transform="translate(319,635)"/>
<path d="M0 0 C-2.58411731 1.72274487 -4.54902656 2.68895522 -7.4375 3.6875 C-8.19933594 3.95949219 -8.96117187 4.23148438 -9.74609375 4.51171875 C-12.21829721 5.04729142 -13.62983284 4.80445309 -16 4 C-14.08959948 3.1319092 -12.17139263 2.28098217 -10.25 1.4375 C-9.18265625 0.96183594 -8.1153125 0.48617187 -7.015625 -0.00390625 C-4.01630163 -0.9946154 -2.86578759 -1.16161779 0 0 Z " fill="#24262A" transform="translate(295,685)"/>
<path d="M0 0 C2.31 0.33 4.62 0.66 7 1 C7 1.66 7 2.32 7 3 C8.32 3 9.64 3 11 3 C11 3.66 11 4.32 11 5 C11.99 5.33 12.98 5.66 14 6 C9.50540476 5.29771949 5.09389959 3.99912387 1 2 C0.67 1.34 0.34 0.68 0 0 Z " fill="#0B5E3B" transform="translate(387,469)"/>
<path d="M0 0 C-2.52480693 2.52480693 -4.13823034 2.55738633 -7.625 3.125 C-8.62789063 3.29257812 -9.63078125 3.46015625 -10.6640625 3.6328125 C-11.43492187 3.75398437 -12.20578125 3.87515625 -13 4 C-11.72807637 1.45615274 -10.80051531 1.30631844 -8.1875 0.3125 C-7.50042969 0.04050781 -6.81335938 -0.23148438 -6.10546875 -0.51171875 C-3.70623504 -1.06812731 -2.3105636 -0.77364938 0 0 Z " fill="#0A673F" transform="translate(363,620)"/>
<path d="M0 0 C-1.24176695 0.70226141 -2.49385599 1.38629109 -3.75 2.0625 C-4.79414063 2.63677734 -4.79414063 2.63677734 -5.859375 3.22265625 C-8.36140628 4.1312406 -9.5332355 3.88336837 -12 3 C-9.84267191 0.84267191 -8.88177557 0.51705175 -6 -0.1875 C-5.29875 -0.36667969 -4.5975 -0.54585937 -3.875 -0.73046875 C-2 -1 -2 -1 0 0 Z " fill="#0D4E34" transform="translate(396,607)"/>
<path d="M0 0 C9.71428571 1.71428571 9.71428571 1.71428571 13 5 C11.35 5 9.7 5 8 5 C8 4.34 8 3.68 8 3 C7.236875 2.87625 6.47375 2.7525 5.6875 2.625 C3 2 3 2 0 0 Z " fill="#0B623D" transform="translate(338,510)"/>
<path d="M0 0 C-0.33 0.99 -0.66 1.98 -1 3 C-4.28976808 4.09658936 -5.71303767 3.79953138 -9 3 C-4.5 0 -4.5 0 0 0 Z " fill="#BEC0C1" transform="translate(523,592)"/>
</svg>
